<?xml version="1.0" encoding="utf-8"?>
<!-- Generator: Adobe Illustrator 18.0.0, SVG Export Plug-In . SVG Version: 6.00 Build 0)  -->
<!DOCTYPE svg PUBLIC "-//W3C//DTD SVG 1.1//EN" "http://www.w3.org/Graphics/SVG/1.1/DTD/svg11.dtd">
<svg version="1.1" id="Layer_1" xmlns="http://www.w3.org/2000/svg" xmlns:xlink="http://www.w3.org/1999/xlink" x="0px" y="0px"
	 viewBox="0 0 275 120" enable-background="new 0 0 275 120" xml:space="preserve">
<g>
	<path d="M36.1,94c-3.1,0-6.4-0.6-9.4-1.7c-1.4-0.6-2.8-1.4-4.3-1.8l1.7-4.1c2.9,3.8,8.3,5.9,12.7,5.9c5.5,0,8.7-3,8.7-9.1
		c0-16.7-25.2-19.6-25.2-37.9c0-11.7,8.8-19.9,19.3-19.9c4,0,7.9,1.3,11.2,3.8l-2.4,3c-2.3-3.4-6.5-4.9-10.2-4.9
		c-5.6,0-11.5,2.6-11.5,9.6c0,16,26.5,18.4,26.5,38.3C53.2,85.6,45.8,94,36.1,94z"/>
	<path d="M99.6,94.5c-9.1,0-16.3-7.7-16.3-17.7v-51h10.6v52.5c0,6,4.5,11,10,11c5.6,0,10.1-4.9,10.1-11V25.9h2.1v51
		C116,86.7,108.7,94.5,99.6,94.5z"/>
	<path d="M162.4,94.5c-9.1,0-16.3-7.7-16.3-17.7v-51h10.6v52.5c0,6,4.5,11,10,11c5.6,0,10.1-4.9,10.1-11V25.9h2.1v51
		C178.8,86.7,171.5,94.5,162.4,94.5z"/>
	<path d="M229.9,93.9h-21v-68h21c16,0,24.6,18.7,24.6,34C254.6,75.3,246,93.9,229.9,93.9z M229.9,27.6h-10.5V92h10.5
		c12.1,0,12.7-23,12.7-32.1C242.6,50.6,242,27.6,229.9,27.6z"/>
</g>
</svg>
